<?xml version="1.0" encoding="UTF-8"?>
<svg id="PIMCORE_LOGO" xmlns="http://www.w3.org/2000/svg" version="1.1" viewBox="0 0 210 80">
  <defs>
    <style>
      .cls-1 {
        fill: #1d1d1b;
        stroke-width: 0px;
      }
    </style>
  </defs>
  <path class="cls-1" d="M195,28.751v-1.25h-16.249c-2.072,0-3.751,1.68-3.751,3.749v17.502c0,2.07,1.68,3.749,3.751,3.749h12.5c2.07,0,3.749-1.68,3.749-3.749v-1.25h-14.333c-.368,0-.666-.3-.666-.666v-4.333h11.25c2.07,0,3.749-1.68,3.749-3.751v-1.25h-14.999v-4.333c0-.368.298-.666.666-.666h10.583c2.07,0,3.749-1.678,3.749-3.749"/>
  <path class="cls-1" d="M150.749,32.501h10.436c2.003,0,3.7,1.544,3.808,3.543.116,2.16-1.609,3.957-3.743,3.957h-11.252v-6.752c0-.414.337-.749.751-.749M169.999,36.14c-.059-4.829-4.159-8.641-8.988-8.641h-12.261c-2.072,0-3.751,1.68-3.751,3.751v21.251h1.25c2.072,0,3.749-1.68,3.749-3.751v-3.751h9.897l3.608,6.25c.447.774,1.272,1.252,2.164,1.252h4.331l-4.859-8.414c2.91-1.448,4.9-4.467,4.859-7.947"/>
  <path class="cls-1" d="M68.972,28.526l-8.443,8.443c-.294.292-.768.292-1.06,0l-8.431-8.433c-.664-.662-1.564-1.035-2.501-1.035-1.954,0-3.538,1.584-3.538,3.536v21.465h1.25c2.07,0,3.749-1.68,3.749-3.751v-13.376c0-.296.359-.445.568-.235l6.779,6.779c1.466,1.466,3.839,1.466,5.303,0l6.779-6.779c.212-.21.57-.061.57.235v17.127h1.25c2.07,0,3.749-1.68,3.749-3.751v-17.749c0-1.934-1.568-3.5-3.5-3.5h-.051c-.929,0-1.819.368-2.475,1.025"/>
  <path class="cls-1" d="M36.248,52.501h-1.25v-21.251c0-2.07,1.68-3.749,3.751-3.749h1.248v21.249c0,2.072-1.678,3.751-3.749,3.751"/>
  <path class="cls-1" d="M21.139,40h-11.14v-6.75c0-.414.335-.751.751-.751h10.499c2.13,0,3.851,1.785,3.745,3.939-.098,2.015-1.836,3.561-3.855,3.561M21.019,27.5h-12.271c-2.07,0-3.749,1.68-3.749,3.751v21.249h1.248c2.074,0,3.751-1.68,3.751-3.749v-3.751h11.25c4.776,0,8.661-3.826,8.749-8.582.092-4.904-4.075-8.918-8.978-8.918"/>
  <path class="cls-1" d="M127.499,47.5c-2.616,0-4.925-1.346-6.268-3.385l-2.73-4.116,2.752-4.145c1.344-2.021,3.643-3.355,6.246-3.355,4.135,0,7.5,3.365,7.5,7.5s-3.365,7.5-7.5,7.5M127.499,27.5c-4.357,0-8.192,2.228-10.431,5.609l-9.151,13.792c-2.242,3.373-6.074,5.599-10.419,5.599-6.893,0-12.5-5.607-12.5-12.5s5.607-12.5,12.5-12.5c4.302,0,8.104,2.185,10.354,5.503l1.642,2.475,3.003-4.529-.443-.668c-3.14-4.692-8.486-7.781-14.556-7.781-9.664,0-17.5,7.836-17.5,17.5s7.836,17.5,17.5,17.5c6.095,0,11.463-3.116,14.597-7.842l3.402-5.131,1.58,2.377c2.238,3.373,6.07,5.596,10.421,5.596,6.903,0,12.5-5.596,12.5-12.5s-5.597-12.5-12.5-12.5"/>
  <path class="cls-1" d="M201.871,29.285h.972c.186,0,.355.137.372.323.02.212-.147.392-.357.392h-1.07v-.631l.082-.084ZM203.692,29.602c-.022-.449-.41-.792-.86-.792h-1.186c-.184,0-.333.149-.333.333v2.048h.237l.239-.239v-.476h.943l.388.672.073.043h.5l-.461-.802c.284-.143.476-.443.461-.788"/>
  <path class="cls-1" d="M202.502,27.5c-1.378,0-2.499,1.121-2.499,2.501s1.121,2.499,2.499,2.499,2.499-1.121,2.499-2.499-1.119-2.501-2.499-2.501M202.502,27.976c1.117,0,2.025.907,2.025,2.025s-.907,2.025-2.025,2.025-2.025-.907-2.025-2.025.907-2.025,2.025-2.025"/>
</svg>